<?xml version="1.0" standalone="no"?>
<!DOCTYPE svg PUBLIC "-//W3C//DTD SVG 20010904//EN"
 "http://www.w3.org/TR/2001/REC-SVG-20010904/DTD/svg10.dtd">
<svg version="1.0" xmlns="http://www.w3.org/2000/svg"
 width="300.000000pt" height="300.000000pt" viewBox="0 0 300.000000 300.000000"
 preserveAspectRatio="xMidYMid meet">
<metadata>
Created by potrace 1.10, written by Peter Selinger 2001-2011
</metadata>
<g transform="translate(0.000000,300.000000) scale(0.100000,-0.100000)"
fill="#000000" stroke="none">
<path d="M205 2080 c-10 -17 -197 -608 -202 -636 l-6 -34 79 0 79 0 85 125
c47 69 92 136 100 150 8 14 18 25 21 25 4 0 19 -35 33 -77 15 -43 39 -111 54
-150 l27 -73 43 0 c38 0 44 3 39 18 -12 41 -126 364 -130 368 -2 3 -16 -14
-31 -37 -24 -35 -29 -39 -39 -25 -10 13 -25 0 -97 -87 -55 -66 -85 -111 -86
-128 -3 -46 -34 -69 -97 -74 -45 -3 -57 0 -57 11 0 8 4 14 9 14 5 0 13 15 16
33 4 17 12 38 19 46 6 8 10 16 9 17 -7 11 11 63 20 57 5 -3 7 -1 4 4 -4 6 5
44 19 85 14 40 27 81 27 91 1 9 5 17 10 17 4 0 5 5 2 10 -3 6 -2 10 3 10 5 0
9 6 9 13 0 20 34 129 51 165 14 26 22 32 49 32 36 0 71 -38 57 -62 -4 -7 -3
-10 1 -5 10 8 35 -56 35 -90 0 -12 5 -25 10 -28 15 -9 12 -35 -4 -35 -8 0 -18
14 -21 33 -9 38 -45 105 -62 111 -9 4 51 -199 64 -214 3 -3 19 12 35 33 23 29
33 35 40 25 7 -10 10 -10 18 3 5 9 39 56 75 105 57 77 73 104 62 104 -2 0 -36
-43 -77 -95 -41 -52 -78 -95 -81 -95 -3 0 -23 51 -43 113 -21 62 -40 117 -44
122 -7 10 -121 14 -127 5z m235 -422 c15 -51 27 -83 46 -121 8 -16 14 -41 14
-55 -1 -25 -2 -26 -15 -9 -7 11 -11 26 -8 34 3 8 -3 26 -14 41 -23 32 -45 91
-38 102 3 5 0 10 -7 12 -16 6 -19 38 -4 38 7 0 19 -19 26 -42z"/>
<path d="M237 1937 c-9 -14 -17 -38 -17 -52 0 -14 -4 -25 -8 -25 -4 0 -9 -16
-10 -36 -2 -20 -7 -44 -11 -53 -5 -9 -12 -36 -16 -61 -4 -25 -12 -54 -18 -65
-11 -21 -22 -125 -13 -125 13 0 120 399 114 428 -2 12 -7 10 -21 -11z"/>
<path d="M1773 1796 c-95 -30 -147 -100 -147 -196 1 -78 39 -141 109 -178 73
-38 198 -32 267 13 22 15 46 24 54 21 20 -8 18 3 -8 41 -25 35 -38 42 -38 19
0 -8 -16 -27 -36 -43 -47 -36 -142 -44 -198 -18 -111 53 -129 207 -31 273 64
44 137 49 218 15 24 -10 37 -23 37 -35 0 -10 3 -18 8 -18 6 0 52 73 52 83 0 2
-12 4 -27 5 -16 0 -53 7 -83 16 -64 19 -120 19 -177 2z"/>
<path d="M2755 1806 c-5 -2 -22 -7 -37 -10 -68 -15 -112 -88 -88 -146 20 -48
51 -61 168 -70 124 -9 140 -14 148 -45 8 -31 -10 -61 -46 -80 -64 -33 -221 -5
-246 43 -10 21 -12 20 -37 -18 -14 -22 -22 -42 -17 -45 5 -3 11 -1 14 4 3 5
33 -2 67 -16 82 -33 188 -34 249 -3 54 28 77 77 61 131 -16 54 -44 68 -158 75
-117 7 -151 18 -159 51 -15 58 88 104 183 83 58 -13 83 -27 83 -45 0 -27 20
-15 35 21 18 44 20 63 4 47 -8 -8 -21 -7 -46 4 -34 14 -157 27 -178 19z"/>
<path d="M653 1782 c13 -15 16 -43 15 -181 -2 -119 -5 -167 -15 -177 -21 -21
-16 -24 37 -24 52 0 60 5 36 24 -12 8 -16 44 -18 159 -2 81 -1 147 2 147 3 -1
41 -75 84 -166 44 -90 82 -161 86 -157 3 5 39 78 80 163 41 85 78 157 83 158
4 2 5 8 2 12 -3 5 0 12 6 16 9 5 10 0 4 -17 -4 -13 -10 -90 -12 -171 -3 -82
-9 -148 -14 -148 -5 0 -9 -4 -9 -10 0 -5 23 -10 50 -10 44 0 67 13 40 22 -16
5 -16 344 0 363 11 13 4 15 -55 15 -58 0 -66 -2 -55 -15 10 -12 0 -38 -51
-145 -35 -71 -66 -130 -69 -130 -3 0 -34 58 -70 129 -54 110 -62 132 -51 145
12 14 6 16 -54 16 -65 0 -67 -1 -52 -18z"/>
<path d="M1200 1790 c0 -5 5 -10 10 -10 6 0 10 -67 10 -180 0 -113 -4 -180
-10 -180 -5 0 -10 -4 -10 -10 0 -5 23 -10 50 -10 44 0 67 12 41 22 -5 2 -10
38 -13 81 l-3 77 103 0 c67 0 115 5 138 15 74 31 81 143 11 185 -28 17 -51 20
-179 20 -92 0 -148 -4 -148 -10z m298 -46 c19 -13 22 -24 20 -57 -4 -56 -27
-67 -148 -67 l-95 0 0 70 0 70 100 0 c76 0 106 -4 123 -16z"/>
<path d="M2143 1782 c14 -16 17 -43 17 -164 0 -164 8 -186 76 -208 50 -17 174
-14 218 4 55 23 66 59 66 222 0 119 2 139 18 150 15 12 10 13 -38 14 -42 0
-51 -3 -42 -12 8 -8 12 -58 12 -158 0 -178 -2 -182 -111 -188 -81 -5 -126 10
-140 45 -5 13 -9 81 -9 150 0 104 3 130 17 145 15 17 14 18 -42 18 -56 0 -57
-1 -42 -18z"/>
<path d="M896 1262 c-3 -5 -5 -39 -5 -75 1 -51 4 -67 15 -67 11 0 14 16 14 69
0 64 -10 95 -24 73z"/>
<path d="M956 1263 c-3 -3 -6 -37 -6 -75 0 -54 3 -68 15 -68 12 0 15 14 15 69
0 65 -8 90 -24 74z"/>
<path d="M1140 1196 c0 -72 0 -74 27 -79 36 -7 59 6 65 37 8 39 -13 71 -45 71
-22 -1 -27 4 -27 22 0 13 -4 23 -10 23 -6 0 -10 -31 -10 -74z m68 -3 c10 -19
-1 -63 -16 -63 -24 0 -43 55 -25 73 12 13 32 7 41 -10z"/>
<path d="M2324 1257 c-3 -9 -3 -21 1 -27 4 -7 -1 -9 -18 -5 -31 8 -57 -17 -57
-55 0 -35 33 -61 70 -54 24 5 25 8 24 75 -1 70 -8 95 -20 66z m-6 -59 c16 -16
15 -30 -2 -53 -12 -16 -16 -17 -30 -6 -16 14 -22 52 -9 64 10 11 28 8 41 -5z"/>
<path d="M2523 1253 c-4 -10 -11 -22 -17 -26 -8 -6 -7 -10 2 -14 7 -3 12 -23
12 -49 0 -24 5 -44 10 -44 6 0 10 20 10 45 0 29 4 45 13 45 7 0 4 7 -7 15 -17
13 -17 15 -3 21 21 8 22 24 2 24 -9 0 -19 -8 -22 -17z"/>
<path d="M2964 1256 c-3 -8 -3 -20 1 -25 4 -7 -4 -9 -24 -5 -23 5 -32 2 -40
-14 -28 -52 6 -109 56 -96 19 5 22 14 25 76 3 67 -5 97 -18 64z m-6 -58 c16
-16 15 -30 -2 -53 -12 -16 -16 -17 -30 -6 -16 14 -22 52 -9 64 10 11 28 8 41
-5z"/>
<path d="M1603 1235 c-6 -14 -7 -25 -2 -25 5 0 9 -20 9 -44 0 -44 21 -69 36
-44 4 7 2 14 -4 16 -14 4 -16 72 -3 72 5 0 4 11 -2 25 -7 14 -14 25 -17 25 -3
0 -10 -11 -17 -25z"/>
<path d="M663 1218 c-39 -50 -3 -123 50 -102 16 6 31 33 23 42 -3 2 -12 -3
-21 -11 -22 -23 -45 -10 -45 24 0 34 23 48 45 29 20 -17 32 -5 15 15 -15 18
-54 20 -67 3z"/>
<path d="M777 1212 c-23 -25 -21 -58 3 -82 24 -24 29 -24 58 -4 25 17 31 71
10 92 -18 18 -53 15 -71 -6z m61 -38 c2 -22 -2 -33 -14 -38 -34 -13 -59 35
-32 62 21 21 43 9 46 -24z"/>
<path d="M1020 1215 c-15 -19 -5 -34 12 -17 17 17 48 15 48 -3 0 -8 -9 -15
-19 -15 -32 0 -51 -11 -51 -31 0 -24 28 -38 65 -32 30 5 30 5 25 56 -5 49 -7
52 -36 55 -19 2 -36 -3 -44 -13z m60 -59 c0 -18 -31 -29 -44 -16 -8 8 -7 14 4
20 22 14 40 12 40 -4z"/>
<path d="M1277 1212 c-23 -25 -21 -58 4 -83 21 -21 56 -19 71 5 12 17 9 71 -4
84 -18 18 -53 15 -71 -6z m61 -38 c4 -37 -19 -51 -43 -28 -18 19 -19 36 -3 52
21 21 43 9 46 -24z"/>
<path d="M1399 1226 c0 -1 -1 -23 -2 -51 -3 -63 16 -76 23 -15 3 27 10 45 18
45 25 0 16 20 -10 21 -16 1 -28 1 -29 0z"/>
<path d="M1493 1223 c-7 -2 -13 -11 -13 -19 0 -11 4 -12 19 -3 20 13 60 4 45
-10 -5 -5 -20 -11 -33 -13 -13 -1 -29 -11 -35 -21 -9 -15 -7 -21 9 -33 11 -8
26 -11 35 -8 8 4 23 6 33 6 13 -1 17 7 17 34 0 62 -29 87 -77 67z m57 -62 c0
-16 -30 -33 -47 -26 -17 6 -17 7 1 21 22 16 46 19 46 5z"/>
<path d="M1680 1176 c0 -31 5 -56 10 -56 6 0 10 22 10 49 0 28 -4 53 -10 56
-6 4 -10 -15 -10 -49z"/>
<path d="M1746 1214 c-25 -24 -20 -71 9 -90 23 -15 27 -15 50 0 44 29 26 106
-25 106 -10 0 -26 -7 -34 -16z m62 -35 c4 -34 -22 -57 -43 -39 -16 13 -20 51
-8 64 16 16 48 1 51 -25z"/>
<path d="M1860 1174 c0 -40 4 -54 14 -54 11 0 15 11 13 40 -1 44 5 55 28 47
10 -4 15 -20 15 -46 0 -22 5 -43 11 -46 7 -5 9 13 7 52 l-3 58 -42 1 -43 2 0
-54z"/>
<path d="M2048 1173 c-2 -36 1 -53 9 -53 7 0 13 18 15 43 2 25 8 42 16 42 25
0 16 20 -10 21 -25 1 -26 -2 -30 -53z"/>
<path d="M2140 1214 c-15 -17 -18 -71 -4 -83 19 -18 51 -21 70 -7 25 19 12 31
-17 16 -19 -11 -25 -10 -36 6 -13 18 -11 19 26 22 31 2 41 7 41 21 0 38 -55
56 -80 25z m58 -21 c2 -8 -6 -13 -22 -13 -25 0 -33 10 -19 24 10 10 36 3 41
-11z"/>
<path d="M2396 1214 c-25 -24 -20 -71 9 -90 23 -15 27 -15 52 2 17 11 23 19
15 22 -7 2 -19 -1 -26 -7 -16 -14 -46 -4 -46 15 0 10 12 14 40 14 44 0 52 16
22 43 -23 21 -46 22 -66 1z m62 -21 c2 -9 -7 -13 -27 -13 -30 0 -39 9 -24 24
11 10 46 3 51 -11z"/>
<path d="M2580 1175 c0 -30 5 -55 10 -55 6 0 10 25 10 55 0 30 -4 55 -10 55
-5 0 -10 -25 -10 -55z"/>
<path d="M2640 1174 c0 -36 4 -54 13 -54 8 0 12 15 12 42 0 36 3 43 20 43 16
0 21 -8 23 -42 4 -60 22 -54 22 7 0 53 -5 57 -67 58 -21 1 -23 -4 -23 -54z"/>
<path d="M2776 1208 c-19 -27 -20 -48 -3 -72 15 -20 62 -25 80 -7 16 16 2 24
-21 12 -16 -9 -24 -7 -38 7 -17 16 -16 17 24 20 32 2 42 7 42 21 0 43 -58 56
-84 19z m62 -15 c2 -8 -6 -13 -22 -13 -25 0 -33 10 -19 24 10 10 36 3 41 -11z"/>
<path d="M2489 1080 c-136 -16 -430 -82 -417 -95 2 -2 30 3 63 11 236 56 255
59 450 58 158 0 204 -4 273 -21 45 -11 82 -17 82 -13 0 4 -12 10 -27 14 -245
53 -303 60 -424 46z"/>
</g>
</svg>
