<?xml version="1.0" encoding="utf-8"?>
<!-- Generator: Adobe Illustrator 25.2.0, SVG Export Plug-In . SVG Version: 6.00 Build 0)  -->
<svg version="1.1" id="katman_1" xmlns="http://www.w3.org/2000/svg" xmlns:xlink="http://www.w3.org/1999/xlink" x="0px" y="0px"
	 viewBox="0 0 560 400" style="enable-background:new 0 0 560 400;" xml:space="preserve">
<style type="text/css">
	.st0{fill-rule:evenodd;clip-rule:evenodd;fill:#D03027;}
	.st1{fill-rule:evenodd;clip-rule:evenodd;fill:#004977;}
</style>
<path class="st0" d="M350.88,235.02c-18.62,13.23-40.64,27.05-64.29,41.46l-0.94,0.59c-0.35,0.23-0.35,0.7-0.12,0.94
	c0.23,0.35,0.7,0.35,0.94,0.12l0.82-0.47c20.03-10.42,43.1-22.95,66.28-35.72l0.35-0.23C352.76,239.82,351.7,237.48,350.88,235.02z
	 M472.79,136.29c-29.28-32.32-217.59-3.28-297.69,14.29l-1.87,0.35c-0.35,0.12-0.59,0.47-0.59,0.82c0.12,0.35,0.47,0.59,0.82,0.59
	l1.87-0.35c66.4-11.83,204.36-28.22,234.1,1.29c9.02,9.02,6.91,20.61-3.63,34.2c5.62,3.63,9.72,9.37,11.48,16.51
	C458.27,176.7,485.91,150.7,472.79,136.29L472.79,136.29z"/>
<g>
	<path class="st1" d="M362.83,226.47c0.35,11.36,7.61,20.61,16.98,20.61c18.15,0,25.88-22.25,25.41-37.24
		c-0.35-11.36-7.73-20.73-17.1-20.73C372.31,189.34,362.24,211.48,362.83,226.47z M353.23,225.88
		c-0.7-19.44,14.52-39.23,36.54-39.23c14.76,0,24.36,9.84,24.94,24.94c0.7,20.49-13.47,39.23-36.54,39.23
		C363.41,250.83,353.69,240.99,353.23,225.88z M144.18,220.73c-0.82,0.35-1.76,0.59-3.04,0.82c-1.29,0.23-3.51,0.7-6.91,1.17
		c-2.34,0.35-3.86,0.82-4.8,1.52c-0.82,0.7-1.41,1.41-1.52,2.34c-0.23,1.05,0.12,1.76,1.05,2.46c0.94,0.59,2.34,0.94,4.45,0.94
		c1.52,0,3.04-0.23,4.57-0.7c1.52-0.47,2.81-1.17,3.75-1.99c0.7-0.59,1.17-1.41,1.64-2.34
		C143.48,224.36,143.83,222.95,144.18,220.73L144.18,220.73z M163.39,208.9c-0.12,1.76-0.35,3.4-0.82,6.09l-3.28,18.27
		c-0.23,1.64,0.35,2.93,1.87,3.75l-0.12,0.7h-18.62l-0.12-4.68c-2.69,1.64-5.97,3.04-8.9,3.86c-2.93,0.7-5.27,1.05-8.9,1.05
		c-5.97,0-9.49-0.59-11.83-2.69c-2.46-2.11-3.63-3.51-3.51-6.56c0.12-1.64,0.94-3.86,2.23-5.39c1.29-1.52,3.04-2.58,4.92-3.4
		c1.87-0.94,4.22-1.52,7.5-2.11c3.28-0.59,7.85-1.05,13.94-1.52c3.16-0.23,5.15-1.05,6.09-1.41c1.29-0.47,1.76-1.05,1.99-2.11
		c0.35-1.87-0.23-2.93-2.69-3.4c-6.68-1.29-19.21,0.82-25.76,2.46l3.51-9.49c8.55-1.29,16.51-1.99,24.94-1.99
		C159.17,200.12,163.51,203.98,163.39,208.9L163.39,208.9z M217.26,237.59l6.44-36.42h17.8l-6.44,36.42H217.26z M224.64,192.74
		c0.59-3.04,5.27-5.39,10.54-5.39c5.27,0,9.13,2.46,8.67,5.39c-0.59,3.04-5.27,5.39-10.54,5.39
		C227.92,198.24,224.17,195.79,224.64,192.74z M304.62,220.85c-0.82,0.23-1.87,0.59-3.04,0.82c-1.29,0.35-3.51,0.7-6.91,1.17
		c-2.34,0.35-3.86,0.82-4.8,1.52c-0.82,0.59-1.41,1.41-1.52,2.34c-0.23,1.05,0.23,1.87,1.05,2.46c0.94,0.59,2.34,0.94,4.45,0.94
		c1.52,0,3.04-0.23,4.57-0.7c1.52-0.47,2.81-1.17,3.75-1.99c0.7-0.59,1.17-1.41,1.64-2.34
		C303.92,224.48,304.27,223.07,304.62,220.85z M323.83,208.9c-0.12,1.76-0.35,3.4-0.94,6.09l-3.28,18.27
		c-0.23,1.64,0.35,2.93,1.76,3.75l-0.12,0.59h-18.62l-0.12-4.68c-2.69,1.64-5.97,3.04-8.9,3.86c-2.93,0.82-5.39,1.05-8.9,1.05
		c-5.97,0-9.37-0.59-11.83-2.69s-3.63-3.51-3.51-6.56c0.12-1.76,0.94-3.86,2.23-5.39s3.04-2.58,4.92-3.51
		c1.87-0.94,4.22-1.52,7.38-2.11c3.28-0.47,7.85-1.05,14.05-1.52c3.16-0.23,5.15-0.94,6.09-1.29c1.29-0.47,1.76-1.05,1.99-2.11
		c0.35-1.87-0.23-2.93-2.69-3.4c-6.68-1.29-19.21,0.82-25.76,2.46l3.51-9.49c8.55-1.29,16.51-2.11,24.94-2.11
		C319.61,200.24,323.95,203.98,323.83,208.9L323.83,208.9z M106.71,224.48c-5.74,1.17-9.02,1.64-14.76,1.64
		c-8.55,0-15.22-4.22-14.87-11.95c0.23-5.15,6.32-16.04,21.9-16.04c4.92,0,8.67,0.82,13.82,3.75l2.23-12.65
		c-7.03-2.69-11.59-3.04-17.57-2.93c-20.38,0.23-39.82,9.49-42.28,28.22c-2.46,19.09,20.85,23.89,31.15,23.89
		c5.97,0,12.18-0.23,18.03-0.82L106.71,224.48z M251.22,201.06l1.29-7.38l18.62-4.1l-1.99,11.48h9.13l-1.76,7.38h-8.78l-5.39,29.28
		c0,0-17.92-0.12-18.03,0l5.39-29.16h-6.79l1.41-7.38h6.91L251.22,201.06z M341.87,237.59h-18.15l9.13-50.71l17.68,0.47
		L341.87,237.59z M193.72,209.72c-2.34,0-4.45,0.7-6.32,2.11s-3.04,3.51-3.51,6.21c-0.59,3.16-0.23,5.5,1.05,6.91
		c1.29,1.41,3.04,2.11,5.5,2.11c1.64,0,3.28-0.23,4.57-0.94c1.52-0.82,2.58-1.64,3.51-3.04c0.94-1.41,1.64-2.93,1.99-4.8
		c0.47-2.93,0.12-5.04-1.29-6.44S195.95,209.72,193.72,209.72L193.72,209.72z M161.28,250.12l8.67-48.72h15.58l-1.17,6.21
		c1.41-1.87,3.51-3.4,6.56-4.68c3.04-1.29,6.44-2.11,10.07-2.11c4.1,0,6.56,0.23,9.6,1.76c3.04,1.64,5.15,3.86,6.32,6.91
		c1.17,2.93,1.41,6.32,0.82,9.95c-1.05,5.97-3.98,10.77-8.78,14.29c-4.8,3.51-9.02,4.45-15.22,4.45c-2.23,0-3.98-0.23-5.5-0.59
		c-1.52-0.35-2.69-0.82-3.51-1.41s-1.76-1.41-2.93-2.69l-2.93,16.75h-17.57V250.12z M484.27,214.17c-0.12-2.93-1.52-4.92-4.57-4.92
		c-7.26,0-15.11,14.29-16.4,20.03C475.25,229.4,484.51,222.25,484.27,214.17L484.27,214.17z M485.79,236.66l1.41,0.94
		c-3.51,7.26-10.77,13.12-19.32,13.12c-6.91,0-12.65-4.68-13-13.35c-0.59-15.58,14.05-30.1,26-30.1c5.15,0,9.84,2.23,10.07,7.73
		c0.47,12.41-16.98,16.16-28.46,16.4c-0.35,1.29-0.47,2.58-0.47,4.57c0.23,5.15,3.28,9.49,9.72,9.49
		C477.48,245.44,482.98,240.99,485.79,236.66L485.79,236.66z M414.47,213.82c1.29-0.12,3.28-0.35,4.1-0.35
		c1.29,0,2.58,0.23,2.58,1.52c0,0.82-1.41,6.32-1.64,7.61l-2.81,12.18c-1.17,5.04-2.34,10.31-3.4,14.4h7.14l3.98-19.44
		c12.18-12.76,16.98-16.86,19.79-16.86c1.29,0,2.23,0.7,2.23,2.23c0.12,2.23-1.29,7.38-1.76,8.78l-4.1,14.17
		c-0.94,3.16-1.64,6.09-1.52,8.08c0.12,3.16,1.99,4.45,4.8,4.45c5.15,0,9.02-5.39,12.3-10.77l-0.94-1.76
		c-1.29,2.11-4.45,6.79-6.91,6.79c-0.82,0-1.52-0.47-1.52-1.76c-0.12-1.64,0.59-4.1,1.05-5.74l4.57-16.51
		c1.17-4.57,1.76-7.5,1.76-9.02c-0.12-3.04-1.87-4.57-4.68-4.57c-4.68,0-10.89,3.4-24.12,18.62h-0.23l1.64-7.38
		c0.94-4.1,1.76-8.31,2.69-11.24c-4.57,1.64-11.13,3.51-15.11,4.22L414.47,213.82z"/>
	<path class="st1" d="M492.12,200.59c0-3.63,2.93-6.32,6.44-6.32c3.4,0,6.44,2.69,6.44,6.32s-2.93,6.32-6.44,6.32
		C495.05,207.03,492.12,204.33,492.12,200.59z M498.56,205.97c2.81,0,5.15-2.23,5.15-5.27c0-3.04-2.23-5.27-5.15-5.27
		c-2.93,0-5.15,2.23-5.15,5.27C493.41,203.75,495.63,205.97,498.56,205.97z M497.27,204.33h-1.17v-7.26h2.81
		c1.76,0,2.58,0.59,2.58,2.11c0,1.29-0.82,1.87-1.87,1.99l2.11,3.16h-1.29l-1.87-3.16h-1.29L497.27,204.33z M498.56,200.24
		c0.94,0,1.76-0.12,1.76-1.17c0-0.94-0.82-1.05-1.64-1.05h-1.52v2.23H498.56z"/>
</g>
</svg>
